<?xml version="1.0" encoding="UTF-8"?>
<!DOCTYPE svg PUBLIC "-//W3C//DTD SVG 1.1//EN" "http://www.w3.org/Graphics/SVG/1.1/DTD/svg11.dtd">
<svg xmlns="http://www.w3.org/2000/svg" version="1.1" width="509px" height="287px" style="shape-rendering:geometricPrecision; text-rendering:geometricPrecision; image-rendering:optimizeQuality; fill-rule:evenodd; clip-rule:evenodd" xmlns:xlink="http://www.w3.org/1999/xlink">
<g><path style="opacity:0.811" fill="#8a1d40" d="M 125.5,-0.5 C 127.167,-0.5 128.833,-0.5 130.5,-0.5C 130.5,2.16667 130.5,4.83333 130.5,7.5C 131.5,7.5 132.5,7.5 133.5,7.5C 132.575,9.99009 131.575,12.4901 130.5,15C 131.112,17.141 131.112,19.141 130.5,21C 134.868,28.3096 132.868,30.6429 124.5,28C 123.693,22.917 123.193,17.7503 123,12.5C 121.842,12.0019 121.009,11.1685 120.5,10C 121.985,7.84386 123.485,5.67719 125,3.5C 125.49,2.20677 125.657,0.873441 125.5,-0.5 Z"/></g>
<g><path style="opacity:0.808" fill="#8a1d40" d="M 54.5,7.5 C 68.1675,5.59309 70.5009,9.42642 61.5,19C 68.5463,21.0176 73.8796,25.1843 77.5,31.5C 76.1866,34.7248 73.8533,35.8915 70.5,35C 65.6574,29.3183 59.6574,25.485 52.5,23.5C 54.4512,20.2139 56.7846,17.2139 59.5,14.5C 54.9758,11.4649 51.6425,12.4649 49.5,17.5C 51.5401,25.1185 53.8734,32.6185 56.5,40C 54.3213,41.1419 51.9879,41.9752 49.5,42.5C 48.914,42.2907 48.414,41.9574 48,41.5C 45.6667,33.8333 43.3333,26.1667 41,18.5C 39.7949,17.9288 38.6283,17.2621 37.5,16.5C 38.9942,11.888 41.9942,10.5546 46.5,12.5C 49.0111,10.4572 51.6778,8.79057 54.5,7.5 Z"/></g>
<g><path style="opacity:0.812" fill="#8a1d40" d="M 140.5,7.5 C 142.938,8.61927 145.438,8.61927 148,7.5C 151.834,7.31883 154.667,8.81883 156.5,12C 154.932,17.0068 155.265,21.8401 157.5,26.5C 157.023,27.4776 156.357,28.3109 155.5,29C 151.804,28.6575 148.137,28.8242 144.5,29.5C 135.796,28.1041 132.63,23.1041 135,14.5C 136.666,12.0043 138.5,9.67098 140.5,7.5 Z M 143.5,11.5 C 147.343,11.491 149.01,13.491 148.5,17.5C 146.548,26.7188 144.215,26.5521 141.5,17C 142.077,15.0999 142.744,13.2666 143.5,11.5 Z"/></g>
<g><path style="opacity:0.797" fill="#8a1d40" d="M 161.5,7.5 C 163.441,7.8693 165.275,8.53597 167,9.5C 167.171,14.8642 167.671,20.1975 168.5,25.5C 170.069,24.286 170.902,22.6193 171,20.5C 171.684,17.62 171.517,14.7866 170.5,12C 171.613,10.6057 172.947,9.439 174.5,8.5C 175.833,9.83333 177.167,9.83333 178.5,8.5C 178.357,14.962 178.69,21.462 179.5,28C 179.241,29.2613 178.574,30.2613 177.5,31C 175.217,31.2912 173.05,30.7912 171,29.5C 166.986,31.2488 163.486,30.5821 160.5,27.5C 160,22.1732 159.667,16.8399 159.5,11.5C 159.752,9.92714 160.418,8.5938 161.5,7.5 Z"/></g>
<g><path style="opacity:0.757" fill="#8a1d40" d="M 101.5,8.5 C 105.846,8.33432 110.179,8.50098 114.5,9C 118.466,10.6124 118.466,12.2791 114.5,14C 119.774,17.2977 120.774,21.631 117.5,27C 110.646,31.7054 103.98,31.5387 97.5,26.5C 101.543,23.0071 105.876,23.0071 110.5,26.5C 113.29,24.0727 113.124,22.0727 110,20.5C 97.5224,23.2024 94.6891,19.2024 101.5,8.5 Z M 105.5,11.5 C 107.951,12.8943 110.618,13.7276 113.5,14C 110.69,14.3615 108.023,15.1949 105.5,16.5C 104.334,14.8327 104.334,13.166 105.5,11.5 Z"/></g>
<g><path style="opacity:0.78" fill="#8a1d40" d="M 184.5,9.5 C 188.835,9.91674 193.168,10.4167 197.5,11C 199.527,12.3957 199.86,14.0624 198.5,16C 196.559,16.7429 194.726,16.5762 193,15.5C 191.937,18.7688 191.104,22.1022 190.5,25.5C 193.504,28.8244 192.838,31.1577 188.5,32.5C 186.742,31.8721 185.242,30.8721 184,29.5C 183.291,25.1321 183.458,20.7988 184.5,16.5C 184.061,14.8957 183.394,13.3957 182.5,12C 183.056,10.9889 183.722,10.1556 184.5,9.5 Z"/></g>
<g><path style="opacity:0.797" fill="#8a1d40" d="M 81.5,11.5 C 84.6353,11.5601 87.9687,11.7268 91.5,12C 94.9349,14.0273 96.2682,16.8606 95.5,20.5C 91.5734,21.6547 87.5734,22.488 83.5,23C 86.2538,28.5474 90.2538,29.7141 95.5,26.5C 96.7253,28.8433 96.0586,30.6766 93.5,32C 81.0206,35.1713 75.5206,30.3379 77,17.5C 78.332,15.34 79.832,13.34 81.5,11.5 Z M 83.5,15.5 C 90.4886,18.1854 90.1553,19.5188 82.5,19.5C 82.4326,18.0413 82.7659,16.7079 83.5,15.5 Z"/></g>
<g><path style="opacity:0.792" fill="#8a1d40" d="M 208.5,12.5 C 209.222,12.9175 209.722,13.5842 210,14.5C 214.218,13.09 217.884,14.09 221,17.5C 221.162,21.8724 220.662,26.2057 219.5,30.5C 221.145,33.8818 220.145,36.2152 216.5,37.5C 214.668,36.7515 213.001,35.7515 211.5,34.5C 200.803,34.956 196.97,29.956 200,19.5C 202.217,16.3227 205.05,13.9893 208.5,12.5 Z M 208.5,17.5 C 211.244,17.2003 212.911,18.367 213.5,21C 213.204,24.8416 212.038,28.3416 210,31.5C 206.046,27.2221 205.546,22.5554 208.5,17.5 Z"/></g>
<g><path style="opacity:0.786" fill="#8a1d40" d="M 256.5,16.5 C 257.822,16.33 258.989,16.6634 260,17.5C 259.493,21.5282 259.66,25.5282 260.5,29.5C 258.876,29.3601 257.71,30.0267 257,31.5C 255.422,36.337 254.255,41.0037 253.5,45.5C 249.578,46.8728 246.912,45.5395 245.5,41.5C 246.831,37.1721 248.165,32.8388 249.5,28.5C 249.182,27.3527 248.516,26.5194 247.5,26C 250.386,23.6274 253.22,21.1274 256,18.5C 256.464,17.9056 256.631,17.2389 256.5,16.5 Z"/></g>
<g><path style="opacity:0.784" fill="#8a1d40" d="M 227.5,17.5 C 229.991,17.8288 232.157,18.8288 234,20.5C 238.69,19.0673 242.19,20.5673 244.5,25C 243.557,29.1401 242.557,33.3068 241.5,37.5C 242.896,40.4893 241.896,42.4893 238.5,43.5C 235.574,42.7433 233.907,40.91 233.5,38C 234.583,33.5036 235.583,29.0036 236.5,24.5C 235.178,24.33 234.011,24.6634 233,25.5C 231.94,30.6376 230.44,35.6376 228.5,40.5C 225.944,39.9488 223.611,38.9488 221.5,37.5C 224.059,31.8029 225.059,25.9696 224.5,20C 225.571,19.1482 226.571,18.3149 227.5,17.5 Z"/></g>
<g><path style="opacity:0.783" fill="#8a1d40" d="M 268.5,29.5 C 270.379,29.3932 270.712,29.8932 269.5,31C 275.666,30.8317 278.999,33.8317 279.5,40C 279.568,42.0335 278.734,43.5335 277,44.5C 273.383,43.4612 269.883,42.1278 266.5,40.5C 265.369,42.0745 265.202,43.7412 266,45.5C 268.425,47.8134 271.258,49.4801 274.5,50.5C 269.238,54.2717 264.405,53.605 260,48.5C 255.871,38.7713 258.704,32.438 268.5,29.5 Z M 268.5,34.5 C 271.361,35.237 272.361,36.9037 271.5,39.5C 269.833,38.6667 268.167,37.8333 266.5,37C 267.381,36.2917 268.047,35.4584 268.5,34.5 Z"/></g>
<g><path style="opacity:0.828" fill="#8a1d40" d="M 88.5,286.5 C 83.8333,286.5 79.1667,286.5 74.5,286.5C 40.5693,282.077 19.736,263.077 12,229.5C 5.28298,190.928 19.6163,163.595 55,147.5C 55.7982,144.457 56.9648,141.624 58.5,139C 56.4308,137.477 54.0974,136.643 51.5,136.5C 49.3064,115.518 49.1397,94.5178 51,73.5C 51.4919,66.3684 53.4919,59.7017 57,53.5C 70.5617,45.7568 85.0617,40.5901 100.5,38C 150.139,30.5453 198.806,34.5453 246.5,50C 252.228,51.9448 257.395,54.7781 262,58.5C 262.667,59.8333 262.667,61.1667 262,62.5C 252.196,71.3029 242.696,80.4695 233.5,90C 234,90.1667 234.5,90.3333 235,90.5C 248.016,84.7422 260.849,78.5755 273.5,72C 288.684,62.5722 304.351,53.9055 320.5,46C 330.231,42.2201 339.564,42.8868 348.5,48C 351.373,52.6024 353.873,57.4358 356,62.5C 357.648,63.717 359.481,64.5503 361.5,65C 366.167,65.6667 370.833,65.6667 375.5,65C 388.514,63.3295 401.514,61.6628 414.5,60C 436.83,59.0926 459.164,58.7593 481.5,59C 495.19,62.1726 498.19,69.5059 490.5,81C 487.905,83.3394 485.239,83.6728 482.5,82C 492.165,79.0336 494.498,73.367 489.5,65C 487.112,63.1395 484.446,61.8061 481.5,61C 455.492,60.4639 429.492,60.7973 403.5,62C 390.309,64.5963 376.976,66.4296 363.5,67.5C 360.14,67.4911 357.14,66.4911 354.5,64.5C 352.008,61.2106 350.175,57.5439 349,53.5C 345.136,48.7343 340.136,46.0676 334,45.5C 326.879,46.6572 320.046,48.8238 313.5,52C 298.337,60.414 283.337,69.0807 268.5,78C 255.641,85.0972 242.307,91.0972 228.5,96C 220.204,102.627 212.204,109.627 204.5,117C 208.641,118.474 211.474,121.307 213,125.5C 215.888,131.277 218.221,137.277 220,143.5C 220.542,153.175 221.209,162.842 222,172.5C 223.981,181.422 225.481,190.422 226.5,199.5C 226.156,207.074 224.656,214.408 222,221.5C 217.889,233.053 212.722,244.053 206.5,254.5C 199.704,258.134 193.038,261.967 186.5,266C 172.294,271.234 157.627,272.901 142.5,271C 136.895,269.511 131.228,268.844 125.5,269C 123.167,271 120.833,273 118.5,275C 124.436,276.139 130.436,276.805 136.5,277C 133.333,277.167 130.167,277.333 127,277.5C 123.397,277.45 120.064,276.783 117,275.5C 108.31,281.449 98.8097,285.116 88.5,286.5 Z M 103.5,78.5 C 101.903,71.2109 99.4029,64.2109 96,57.5C 95.0924,52.9712 94.2591,48.4712 93.5,44C 104.765,42.5033 116.099,41.3366 127.5,40.5C 127.925,47.6154 127.425,54.6154 126,61.5C 117.773,66.2305 110.273,71.8972 103.5,78.5 Z M 130.5,41.5 C 142.69,40.8754 154.69,42.0421 166.5,45C 164.626,49.4902 162.292,53.6569 159.5,57.5C 149.763,54.8933 140.096,55.2266 130.5,58.5C 130.5,52.8333 130.5,47.1667 130.5,41.5 Z M 103.5,78.5 C 100.917,82.5895 97.7501,86.2562 94,89.5C 92.9196,91.9962 91.5862,94.3295 90,96.5C 79.8182,86.9929 71.1516,76.3262 64,64.5C 60.656,60.0155 61.156,56.1822 65.5,53C 72.7718,49.0987 80.4385,46.2654 88.5,44.5C 93.0995,55.6324 97.0995,66.9657 100.5,78.5C 101.5,78.5 102.5,78.5 103.5,78.5 Z M 136.5,132.5 C 143.033,112.426 149.866,92.426 157,72.5C 158.701,69.4652 161.035,67.1319 164,65.5C 164.92,62.6917 164.087,60.5251 161.5,59C 164.791,54.2522 167.958,49.4188 171,44.5C 183.412,48.5256 195.912,52.359 208.5,56C 204.367,59.1311 200.534,62.6311 197,66.5C 176.967,88.696 156.801,110.696 136.5,132.5 Z M 144.5,59.5 C 148.308,59.1632 151.974,59.6632 155.5,61C 154.344,63.4398 154.344,65.9398 155.5,68.5C 147.903,89.4565 140.403,110.457 133,131.5C 131.567,110.503 130.567,89.5025 130,68.5C 130.785,66.714 131.951,65.214 133.5,64C 137.157,62.1776 140.824,60.6776 144.5,59.5 Z M 58.5,62.5 C 67.2815,75.1389 77.1149,87.1389 88,98.5C 87.1819,104.161 85.1819,109.494 82,114.5C 72.8621,110.35 64.5287,105.017 57,98.5C 56.0926,86.425 56.5926,74.425 58.5,62.5 Z M 125.5,68.5 C 127.733,88.967 128.9,109.634 129,130.5C 121.752,116.504 114.918,102.337 108.5,88C 108.318,85.6962 108.984,85.1962 110.5,86.5C 111.731,85.3493 111.731,84.1827 110.5,83C 115.959,78.6109 120.959,73.7775 125.5,68.5 Z M 243.5,69.5 C 239.894,75.4378 235.561,80.7712 230.5,85.5C 233.42,80.7323 236.586,76.0656 240,71.5C 240.816,70.1772 241.983,69.5106 243.5,69.5 Z M 236.5,71.5 C 233.655,76.5273 230.321,81.194 226.5,85.5C 228.734,79.9503 232.068,75.2837 236.5,71.5 Z M 230.5,72.5 C 230.573,74.0269 229.906,75.0269 228.5,75.5C 228.427,73.9731 229.094,72.9731 230.5,72.5 Z M 225.5,73.5 C 225.573,75.0269 224.906,76.0269 223.5,76.5C 223.427,74.9731 224.094,73.9731 225.5,73.5 Z M 104.5,90.5 C 105.376,90.3691 106.043,90.7025 106.5,91.5C 112.784,104.569 119.451,117.402 126.5,130C 124.721,129.956 123.055,129.289 121.5,128C 113.364,120.865 105.53,113.365 98,105.5C 97.3333,104.5 97.3333,103.5 98,102.5C 99.9941,98.3568 102.161,94.3568 104.5,90.5 Z M 215.5,96.5 C 216.773,97.0768 216.773,97.7435 215.5,98.5C 214.537,98.0302 214.537,97.3635 215.5,96.5 Z M 80.5,116.5 C 80.1231,118.258 79.4565,119.925 78.5,121.5C 78.7093,122.086 79.0426,122.586 79.5,123C 77.9512,124.214 76.7845,125.714 76,127.5C 74.6569,126.786 73.3236,127.12 72,128.5C 68.3414,126.613 64.5081,125.113 60.5,124C 57.9403,117.085 56.7736,109.918 57,102.5C 64.9301,107.079 72.7635,111.746 80.5,116.5 Z M 198.5,104.5 C 197.791,105.404 196.791,105.737 195.5,105.5C 195.369,104.761 195.536,104.094 196,103.5C 196.671,104.252 197.504,104.586 198.5,104.5 Z M 213.5,103.5 C 209.5,107.833 205.5,112.167 201.5,116.5C 200.624,116.631 199.957,116.298 199.5,115.5C 201.207,112.144 202.873,108.81 204.5,105.5C 205.167,105.833 205.833,106.167 206.5,106.5C 208.51,104.747 210.843,103.747 213.5,103.5 Z M 195.5,105.5 C 194.473,106.848 193.14,107.348 191.5,107C 192.563,105.812 193.897,105.312 195.5,105.5 Z M 122.5,133.5 C 110.8,129.15 99.4669,123.984 88.5,118C 89.1667,117 89.8333,116 90.5,115C 91.9506,115.263 93.2839,115.096 94.5,114.5C 92.2192,112.674 92.2192,110.674 94.5,108.5C 95.0016,107.479 95.6683,107.312 96.5,108C 105.672,116.005 114.338,124.505 122.5,133.5 Z M 163.5,107.5 C 164.885,108.614 166.385,109.614 168,110.5C 168.617,111.449 168.451,112.282 167.5,113C 165.087,113.484 162.754,113.15 160.5,112C 161.883,110.729 162.883,109.229 163.5,107.5 Z M 188.5,108.5 C 187.791,109.404 186.791,109.737 185.5,109.5C 185.369,108.761 185.536,108.094 186,107.5C 186.671,108.252 187.504,108.586 188.5,108.5 Z M 197.5,109.5 C 198.239,109.369 198.906,109.536 199.5,110C 198.521,112.137 197.188,113.971 195.5,115.5C 195.167,115.167 194.833,114.833 194.5,114.5C 196.278,113.274 197.278,111.607 197.5,109.5 Z M 170.5,113.5 C 171.251,112.427 172.251,112.26 173.5,113C 172.588,115.488 173.588,117.155 176.5,118C 174.323,119.515 172.156,121.015 170,122.5C 164.488,119.222 164.988,116.389 171.5,114C 171.272,113.601 170.938,113.435 170.5,113.5 Z M 155.5,117.5 C 156.659,115.623 158.326,115.123 160.5,116C 159.789,117.255 158.956,118.421 158,119.5C 157.583,118.244 156.75,117.577 155.5,117.5 Z M 155.5,117.5 C 155.483,119.028 154.816,119.528 153.5,119C 154.044,118.283 154.711,117.783 155.5,117.5 Z M 162.5,117.5 C 163.782,118.708 163.782,120.042 162.5,121.5C 160.206,120.375 160.206,119.041 162.5,117.5 Z M 190.5,118.5 C 191.639,121.673 190.473,122.34 187,120.5C 185.739,120.759 184.739,121.426 184,122.5C 183.517,121.552 183.351,120.552 183.5,119.5C 185.806,119.007 188.139,118.674 190.5,118.5 Z M 86.5,120.5 C 97.1792,125.23 107.846,130.063 118.5,135C 106.224,134.271 94.2239,132.104 82.5,128.5C 82.9483,125.387 84.2816,122.72 86.5,120.5 Z M 177.5,120.5 C 177.489,122.686 176.489,123.519 174.5,123C 175.373,121.955 176.373,121.122 177.5,120.5 Z M 208.5,131.5 C 204.852,129.203 200.852,127.87 196.5,127.5C 188.691,127.417 188.691,128.251 196.5,130C 195.833,130.167 195.167,130.333 194.5,130.5C 192.59,129.452 190.756,129.452 189,130.5C 188.289,128.633 188.789,127.133 190.5,126C 195.34,126.004 199.84,124.837 204,122.5C 205.513,125.527 207.013,128.527 208.5,131.5 Z M 185.5,124.5 C 186.239,124.369 186.906,124.536 187.5,125C 186.897,126.825 186.23,128.659 185.5,130.5C 185.094,129.443 185.094,128.109 185.5,126.5C 184.448,126.649 183.448,126.483 182.5,126C 183.737,125.768 184.737,125.268 185.5,124.5 Z M 156.5,140.5 C 159.989,141.689 160.322,140.855 157.5,138C 154.119,136.661 150.786,135.328 147.5,134C 151.265,132.951 154.932,131.618 158.5,130C 163.489,129.501 168.489,129.334 173.5,129.5C 173.34,131.199 173.506,132.866 174,134.5C 178.087,137.916 181.42,141.916 184,146.5C 184.667,149.167 184.667,151.833 184,154.5C 181.679,158.629 179.846,162.963 178.5,167.5C 181.671,173.279 186.338,174.779 192.5,172C 194.624,170.878 196.457,169.378 198,167.5C 199.714,157.913 200.88,148.246 201.5,138.5C 207.07,137.416 211.57,139.083 215,143.5C 217.884,158.26 217.217,172.927 213,187.5C 211.734,190.635 209.401,192.302 206,192.5C 175.806,187.467 154.973,170.8 143.5,142.5C 143.887,141.28 144.72,140.613 146,140.5C 147.763,140.975 149.43,141.642 151,142.5C 152.245,149.389 154.245,156.056 157,162.5C 158.74,164.954 160.907,166.454 163.5,167C 157.39,160.423 154.39,152.59 154.5,143.5C 155.552,143.649 156.552,143.483 157.5,143C 156.748,142.329 156.414,141.496 156.5,140.5 Z M 129.5,132.5 C 130.766,133.09 132.099,133.59 133.5,134C 131.537,134.844 130.204,134.344 129.5,132.5 Z M 203.5,133.5 C 207.06,135.283 207.06,136.283 203.5,136.5C 203.5,135.5 203.5,134.5 203.5,133.5 Z M 182.5,137.5 C 185.855,138.618 189.188,138.618 192.5,137.5C 194.527,138.693 196.027,140.36 197,142.5C 197.277,150.178 196.944,157.844 196,165.5C 192.68,169.943 188.514,171.109 183.5,169C 182.941,168.275 182.608,167.442 182.5,166.5C 185.069,160.693 187.069,154.693 188.5,148.5C 187.796,144.09 185.796,140.423 182.5,137.5 Z M 97.5,138.5 C 100.313,138.548 102.979,139.215 105.5,140.5C 106.521,141.002 106.688,141.668 106,142.5C 104.506,141.253 103.006,141.253 101.5,142.5C 102.325,143.386 103.325,143.719 104.5,143.5C 104.626,145.2 105.293,146.7 106.5,148C 106.167,148.5 105.833,149 105.5,149.5C 102.344,147.837 99.0106,146.67 95.5,146C 95.0426,145.586 94.7093,145.086 94.5,144.5C 95.5133,142.473 96.5133,140.473 97.5,138.5 Z M 59.5,140.5 C 60.9335,141.833 62.2668,143.333 63.5,145C 62.0953,146.269 60.4286,146.769 58.5,146.5C 58.3253,144.379 58.6586,142.379 59.5,140.5 Z M 88.5,150.5 C 90.604,150.201 92.604,150.534 94.5,151.5C 92.5494,157.691 90.2161,163.691 87.5,169.5C 86.6919,169.192 86.0253,168.692 85.5,168C 89.3609,166.665 89.3609,165.499 85.5,164.5C 84.0112,159.3 85.0112,154.633 88.5,150.5 Z M 60.5,151.5 C 64.1816,150.725 66.6816,152.059 68,155.5C 68.3333,154.5 68.6667,153.5 69,152.5C 69.7967,167.174 70.63,181.841 71.5,196.5C 69.6096,196.703 68.1096,196.037 67,194.5C 64.2953,188.258 61.4619,182.092 58.5,176C 60.1027,172.782 59.6027,169.949 57,167.5C 56.3333,163.5 56.3333,159.5 57,155.5C 57.6897,153.65 58.8564,152.316 60.5,151.5 Z M 72.5,151.5 C 74.0847,152.002 74.5847,153.002 74,154.5C 72.9614,153.756 72.4614,152.756 72.5,151.5 Z M 98.5,152.5 C 103.557,155.113 108.39,158.113 113,161.5C 113.667,162.5 113.667,163.5 113,164.5C 110.667,167.5 108.333,170.5 106,173.5C 101.546,170.858 97.0458,169.191 92.5,168.5C 94.7081,163.205 96.7081,157.871 98.5,152.5 Z M 113.5,152.5 C 116.336,152.202 116.836,152.869 115,154.5C 114.283,153.956 113.783,153.289 113.5,152.5 Z M 51.5,154.5 C 52.5,154.5 53.5,154.5 54.5,154.5C 55.6897,167.45 54.023,168.284 49.5,157C 50.3805,156.292 51.0472,155.458 51.5,154.5 Z M 50.5,168.5 C 48.7775,166.747 47.2775,164.747 46,162.5C 45.3333,161.167 45.3333,159.833 46,158.5C 47.7862,161.736 49.2862,165.07 50.5,168.5 Z M 40.5,161.5 C 43.5375,164.06 45.3708,167.393 46,171.5C 46.8236,174.882 46.657,178.216 45.5,181.5C 40.9812,177.815 36.9812,173.648 33.5,169C 36.0386,166.63 38.3719,164.13 40.5,161.5 Z M 116.5,166.5 C 116.483,168.028 115.816,168.528 114.5,168C 115.044,167.283 115.711,166.783 116.5,166.5 Z M 50.5,168.5 C 52.7365,172.645 54.7365,176.978 56.5,181.5C 54.9743,182.105 53.9743,183.271 53.5,185C 52.5,185.333 51.5,185.667 50.5,186C 52.0249,187.009 53.6916,187.509 55.5,187.5C 55.6602,189.199 55.4935,190.866 55,192.5C 53.3333,190.833 51.6667,189.167 50,187.5C 49.4065,181.144 49.5731,174.811 50.5,168.5 Z M 74.5,169.5 C 77.28,173.782 80.6134,177.616 84.5,181C 83.121,184.974 81.4544,188.808 79.5,192.5C 77.8513,191.352 76.3513,190.019 75,188.5C 74.5005,182.175 74.3338,175.842 74.5,169.5 Z M 85.5,170.5 C 86.4972,170.47 87.1639,170.97 87.5,172C 85.9373,177.608 85.2706,177.108 85.5,170.5 Z M 29.5,172.5 C 30.2389,172.369 30.9056,172.536 31.5,173C 33.1255,175.628 35.1255,177.961 37.5,180C 35.1902,180.497 32.8568,180.663 30.5,180.5C 30.4249,177.794 30.0916,175.127 29.5,172.5 Z M 34.5,192.5 C 29.9099,190.872 25.5765,188.705 21.5,186C 23.3333,182.833 25.1667,179.667 27,176.5C 28.0793,179.063 28.5793,181.729 28.5,184.5C 30.1439,184.286 31.6439,184.62 33,185.5C 33.2904,187.92 33.7904,190.254 34.5,192.5 Z M 101.5,176.5 C 104.001,176.511 104.168,177.178 102,178.5C 101.536,177.906 101.369,177.239 101.5,176.5 Z M 96.5,182.5 C 97.2506,181.427 98.2506,181.26 99.5,182C 98.6477,183.728 97.6477,183.895 96.5,182.5 Z M 119.5,183.5 C 121.76,184.238 121.927,185.238 120,186.5C 119.517,185.552 119.351,184.552 119.5,183.5 Z M 41.5,184.5 C 47.6314,190.13 53.6314,195.964 59.5,202C 57.3046,203.373 54.9712,203.706 52.5,203C 46.8929,200.378 41.8929,197.045 37.5,193C 38.2318,189.802 39.5651,186.969 41.5,184.5 Z M 92.5,189.5 C 91.4566,192.056 89.7899,194.223 87.5,196C 86.2161,196.684 85.0495,196.517 84,195.5C 84.6688,192.178 85.6688,188.845 87,185.5C 88.451,187.464 90.2843,188.797 92.5,189.5 Z M 58.5,186.5 C 60.2663,189.188 61.933,192.021 63.5,195C 62.5509,195.617 61.7175,195.451 61,194.5C 59.2932,192.091 58.4598,189.425 58.5,186.5 Z M 27.5,207.5 C 24.1194,207.54 20.7861,207.207 17.5,206.5C 17.8552,200.723 18.8552,195.057 20.5,189.5C 23.6728,191.587 27.0061,193.421 30.5,195C 29.1667,195.667 27.8333,195.667 26.5,195C 21.5637,191.556 20.5637,192.556 23.5,198C 25.7619,198.642 27.9285,199.475 30,200.5C 30.6889,203.329 29.5222,204.996 26.5,205.5C 26.8627,206.183 27.1961,206.85 27.5,207.5 Z M 109.5,190.5 C 113.286,190.638 113.286,191.305 109.5,192.5C 109.5,191.833 109.5,191.167 109.5,190.5 Z M 106.5,192.5 C 107.5,192.5 108.5,192.5 109.5,192.5C 107.957,194.557 106.957,194.557 106.5,192.5 Z M 75.5,194.5 C 79.31,195.754 79.31,196.754 75.5,197.5C 75.5,196.5 75.5,195.5 75.5,194.5 Z M 94.5,194.5 C 100.314,196.392 100.647,198.725 95.5,201.5C 94.5258,199.257 94.1924,196.924 94.5,194.5 Z M 41.5,201.5 C 40.1779,201.33 39.0113,201.663 38,202.5C 37.8511,198.95 39.0178,198.617 41.5,201.5 Z M 134.5,199.5 C 138.243,199.459 138.41,200.126 135,201.5C 134.536,200.906 134.369,200.239 134.5,199.5 Z M 41.5,201.5 C 43.153,201.66 44.4863,202.326 45.5,203.5C 43.6203,203.771 42.287,203.104 41.5,201.5 Z M 65.5,209.5 C 63.6064,208.952 61.9397,207.952 60.5,206.5C 60.8076,205.692 61.3076,205.025 62,204.5C 63.6692,205.846 64.8358,207.513 65.5,209.5 Z M 92.5,206.5 C 95.3429,207.771 98.3429,208.604 101.5,209C 96.1693,210.4 90.8359,211.4 85.5,212C 87.9025,210.147 90.2359,208.314 92.5,206.5 Z M 37.5,207.5 C 43.1764,207.334 48.8431,207.501 54.5,208C 56.9962,209.08 59.3295,210.414 61.5,212C 52.5012,211.382 43.5012,210.382 34.5,209C 35.7375,208.768 36.7375,208.268 37.5,207.5 Z M 14.5,210.5 C 14.9169,209.876 15.5836,209.543 16.5,209.5C 19.1454,210.108 21.8121,210.608 24.5,211C 26.1066,212.049 26.7733,213.549 26.5,215.5C 23.8127,215.664 21.146,215.497 18.5,215C 17.2593,213.302 15.926,211.802 14.5,210.5 Z M 31.5,211.5 C 39.1237,212.804 46.7904,213.97 54.5,215C 46.1603,215.481 37.827,215.981 29.5,216.5C 29.3915,214.486 30.0582,212.82 31.5,211.5 Z M 77.5,214.5 C 77.9473,212.027 78.9473,211.86 80.5,214C 79.552,214.483 78.552,214.649 77.5,214.5 Z M 59.5,215.5 C 64.6393,216.941 64.6393,217.941 59.5,218.5C 59.5,217.5 59.5,216.5 59.5,215.5 Z M 97.5,218.5 C 102.65,217.349 107.984,217.183 113.5,218C 113.167,218.333 112.833,218.667 112.5,219C 117.504,218.946 122.504,218.446 127.5,217.5C 129.923,217.594 132.256,218.094 134.5,219C 133.5,220 132.5,221 131.5,222C 134.035,222.617 136.368,222.117 138.5,220.5C 139.833,221.833 139.833,223.167 138.5,224.5C 124.924,221.941 111.257,219.941 97.5,218.5 Z M 69.5,219.5 C 70.8474,218.972 72.1807,218.805 73.5,219C 72.1821,220.63 70.8488,220.797 69.5,219.5 Z M 17.5,219.5 C 27.7774,220.363 27.9441,222.697 18,226.5C 17.5034,224.19 17.3367,221.857 17.5,219.5 Z M 28.5,220.5 C 35.5079,220.334 42.5079,220.5 49.5,221C 41.5615,223.32 33.5615,224.987 25.5,226C 26.7577,224.259 27.7577,222.426 28.5,220.5 Z M 145.5,266.5 C 147.098,252.146 148.931,237.813 151,223.5C 151.419,222.328 152.085,221.328 153,220.5C 159.055,235.165 164.222,250.165 168.5,265.5C 160.868,266.358 153.201,266.691 145.5,266.5 Z M 157.5,221.5 C 158.251,220.427 159.251,220.26 160.5,221C 167.019,228.018 173.353,235.185 179.5,242.5C 180.325,243.386 181.325,243.719 182.5,243.5C 182.5,247.5 182.5,251.5 182.5,255.5C 185.568,255.547 188.568,256.047 191.5,257C 185.712,259.977 179.879,262.811 174,265.5C 173.333,264.833 172.667,264.167 172,263.5C 167.033,249.429 162.2,235.429 157.5,221.5 Z M 168.5,220.5 C 173.46,220.896 177.96,222.562 182,225.5C 182.667,230.833 182.667,236.167 182,241.5C 177.377,235.208 172.377,229.208 167,223.5C 166.761,222.212 167.261,221.212 168.5,220.5 Z M 194.5,220.5 C 198.116,227.335 200.782,234.668 202.5,242.5C 202.272,244.397 201.272,245.73 199.5,246.5C 196.422,244.87 193.089,244.037 189.5,244C 189.043,243.586 188.709,243.086 188.5,242.5C 190.628,235.189 192.628,227.856 194.5,220.5 Z M 95.5,224.5 C 94.596,223.791 94.2627,222.791 94.5,221.5C 95.8734,221.343 97.2068,221.51 98.5,222C 97.0577,222.377 96.0577,223.21 95.5,224.5 Z M 198.5,222.5 C 200.265,221.539 202.265,221.205 204.5,221.5C 204.666,226.844 204.499,232.177 204,237.5C 202.432,232.286 200.599,227.286 198.5,222.5 Z M 209.5,221.5 C 211.567,221.532 212.9,222.532 213.5,224.5C 212.746,228.101 211.413,231.434 209.5,234.5C 208.29,230.152 208.29,225.819 209.5,221.5 Z M 61.5,222.5 C 49.3986,230.392 37.0653,238.059 24.5,245.5C 22.1503,241.118 20.8169,236.452 20.5,231.5C 34.087,228.116 47.7537,225.116 61.5,222.5 Z M 188.5,222.5 C 191.041,223.623 191.041,224.956 188.5,226.5C 187.374,225.192 187.374,223.858 188.5,222.5 Z M 113.5,234.5 C 107.17,231.67 101.17,228.337 95.5,224.5C 100.326,224.145 105.159,223.812 110,223.5C 114.617,223.44 119.117,224.107 123.5,225.5C 120.891,228.144 117.891,230.311 114.5,232C 113.748,232.671 113.414,233.504 113.5,234.5 Z M 86.5,224.5 C 90.9591,225.293 93.2924,227.96 93.5,232.5C 90.4503,230.451 88.117,227.784 86.5,224.5 Z M 113.5,234.5 C 119.255,232.699 124.422,229.699 129,225.5C 131.74,226.282 134.574,226.782 137.5,227C 133.579,231.914 130.079,237.081 127,242.5C 122.519,239.681 118.019,237.014 113.5,234.5 Z M 82.5,226.5 C 94.4337,239.604 106.6,252.604 119,265.5C 119.688,266.332 119.521,266.998 118.5,267.5C 114.833,270 111.167,272.5 107.5,275C 106.551,275.617 105.718,275.451 105,274.5C 97.2152,258.599 89.7152,242.599 82.5,226.5 Z M 62.5,227.5 C 54.4687,239.54 45.4687,250.873 35.5,261.5C 31.7833,257.676 29.2833,253.343 28,248.5C 39.3058,241.101 50.8058,234.101 62.5,227.5 Z M 67.5,227.5 C 68.0431,227.56 68.3764,227.893 68.5,228.5C 63.5679,242.796 58.7346,257.13 54,271.5C 53.2747,273.158 52.108,273.658 50.5,273C 45.2584,271.189 45.5917,270.189 51.5,270C 46.3765,269.587 42.0431,267.587 38.5,264C 48.761,252.246 58.4277,240.08 67.5,227.5 Z M 72.5,227.5 C 73.3091,229.292 73.8091,231.292 74,233.5C 75.1243,249.155 75.9576,264.821 76.5,280.5C 69.5433,279.761 62.8766,278.094 56.5,275.5C 62.3731,273.931 68.3731,273.098 74.5,273C 68.8702,272.034 63.2036,271.367 57.5,271C 62.6437,256.547 67.6437,242.047 72.5,227.5 Z M 77.5,227.5 C 86.5439,243.59 94.5439,260.257 101.5,277.5C 94.6806,279.663 87.6806,280.663 80.5,280.5C 79.3252,262.847 78.3252,245.18 77.5,227.5 Z M 187.5,228.5 C 188.947,229.134 189.613,230.301 189.5,232C 188.87,234.89 188.037,237.724 187,240.5C 186.503,236.476 186.669,232.476 187.5,228.5 Z M 101.5,241.5 C 100.221,239.877 98.8872,238.21 97.5,236.5C 97.567,234.576 97.9003,232.576 98.5,230.5C 101.673,232.587 105.006,234.421 108.5,236C 105.734,237.371 103.401,239.204 101.5,241.5 Z M 146.5,230.5 C 145.22,242.185 143.72,253.852 142,265.5C 139.313,264.287 136.48,263.62 133.5,263.5C 138.827,252.843 143.161,241.843 146.5,230.5 Z M 137.5,233.5 C 136.768,237.696 135.435,241.696 133.5,245.5C 131.833,244.667 130.167,243.833 128.5,243C 132.076,240.321 135.076,237.154 137.5,233.5 Z M 113.5,253.5 C 109.5,250.167 105.833,246.5 102.5,242.5C 105.929,241.619 108.929,239.952 111.5,237.5C 116.008,240.254 120.674,242.754 125.5,245C 123,248.167 120.5,251.333 118,254.5C 116.494,252.935 114.994,252.601 113.5,253.5 Z M 127.5,246.5 C 129.423,246.795 131.09,247.628 132.5,249C 130.375,252.082 128.375,255.249 126.5,258.5C 123.689,258.355 120.855,258.355 118,258.5C 117.5,258 117,257.5 116.5,257C 121.928,255.407 125.594,251.907 127.5,246.5 Z"/></g>
<g><path style="opacity:0.826" fill="#8a1d40" d="M 365.5,85.5 C 372.387,85.9619 378.554,88.2953 384,92.5C 385.044,104.956 386.044,117.29 387,129.5C 384.182,132.98 381.182,132.98 378,129.5C 376.661,124.264 376.161,118.93 376.5,113.5C 372.5,113.5 368.5,113.5 364.5,113.5C 364.297,119.054 363.13,124.387 361,129.5C 358.7,132.651 356.533,132.818 354.5,130C 356.693,123.096 357.027,116.096 355.5,109C 355.71,99.7557 359.044,91.9224 365.5,85.5 Z M 366.5,93.5 C 375.924,94.1788 379.257,99.1788 376.5,108.5C 372.233,108.797 368.066,108.464 364,107.5C 363.485,102.575 364.319,97.9085 366.5,93.5 Z"/></g>
<g><path style="opacity:0.814" fill="#8a1d40" d="M 334.5,87.5 C 338.061,87.7485 341.728,87.9151 345.5,88C 349.085,89.6026 349.418,91.7693 346.5,94.5C 345.667,94.8333 344.833,95.1667 344,95.5C 341.269,94.3834 338.435,93.7167 335.5,93.5C 335.819,103.749 335.486,113.916 334.5,124C 335.91,125.267 337.576,125.267 339.5,124C 342.833,123.333 346.167,123.333 349.5,124C 351.286,124.196 352.619,125.029 353.5,126.5C 352.367,129.488 350.367,131.488 347.5,132.5C 344.571,131.537 341.571,130.87 338.5,130.5C 334.529,131.38 330.529,132.047 326.5,132.5C 326.333,121.162 326.5,109.828 327,98.5C 328.518,94.151 331.018,90.4844 334.5,87.5 Z"/></g>
<g><path style="opacity:0.157" fill="#8a1d40" d="M 458.5,124.5 C 458.897,123.475 459.563,123.308 460.5,124C 459.906,124.464 459.239,124.631 458.5,124.5 Z"/></g>
<g><path style="opacity:0.601" fill="#8a1d40" d="M 156.5,131.5 C 159.518,131.335 162.518,131.502 165.5,132C 166.973,132.71 167.64,133.876 167.5,135.5C 168.675,135.281 169.675,135.614 170.5,136.5C 170.167,136.833 169.833,137.167 169.5,137.5C 166.721,136.644 163.888,135.977 161,135.5C 158.672,135.001 157.172,133.668 156.5,131.5 Z"/></g>
<g><path style="opacity:0.853" fill="#8a1d40" d="M 389.5,153.5 C 390.75,153.577 391.583,154.244 392,155.5C 399.826,154.997 406.826,157.331 413,162.5C 414.28,176.098 414.946,189.765 415,203.5C 418.57,208.828 417.07,212.161 410.5,213.5C 408.088,213.594 406.255,212.594 405,210.5C 403.661,203.574 403.161,196.574 403.5,189.5C 397.833,189.5 392.167,189.5 386.5,189.5C 387.012,196.031 386.178,202.364 384,208.5C 382.316,210.351 380.483,212.018 378.5,213.5C 377.264,212.754 375.93,212.421 374.5,212.5C 377.075,203.654 377.742,194.654 376.5,185.5C 376.161,172.834 380.494,162.167 389.5,153.5 Z M 389.5,163.5 C 402.1,163.785 406.766,170.118 403.5,182.5C 399.517,183.073 393.85,183.406 386.5,183.5C 385.965,176.556 386.965,169.889 389.5,163.5 Z"/></g>
<g><path style="opacity:0.848" fill="#8a1d40" d="M 478.5,153.5 C 479.75,153.577 480.583,154.244 481,155.5C 488.84,154.901 495.84,157.234 502,162.5C 503.28,176.098 503.946,189.765 504,203.5C 507.249,206.729 507.083,209.896 503.5,213C 499.82,214.027 496.653,213.194 494,210.5C 492.661,203.574 492.161,196.574 492.5,189.5C 486.833,189.5 481.167,189.5 475.5,189.5C 476.012,196.031 475.178,202.364 473,208.5C 470.98,212.764 467.813,214.098 463.5,212.5C 464.484,209.188 465.484,205.855 466.5,202.5C 466.018,196.276 465.685,190.11 465.5,184C 465.478,171.878 469.811,161.711 478.5,153.5 Z M 478.5,163.5 C 483.633,163.489 488.133,165.155 492,168.5C 492.499,173.155 492.666,177.821 492.5,182.5C 488.517,183.073 482.85,183.406 475.5,183.5C 475.066,176.579 476.066,169.913 478.5,163.5 Z"/></g>
<g><path style="opacity:0.844" fill="#8a1d40" d="M 244.5,154.5 C 247.994,154.786 250.994,156.119 253.5,158.5C 254.914,157.376 256.414,156.376 258,155.5C 258.451,157.929 259.285,158.096 260.5,156C 271.263,154.761 278.429,159.261 282,169.5C 286.24,182.153 284.907,194.153 278,205.5C 271.571,214.116 263.571,216.116 254,211.5C 254.543,216.09 254.543,220.757 254,225.5C 250.869,228.383 247.369,229.05 243.5,227.5C 243.667,207.164 243.5,186.831 243,166.5C 242.028,164.695 240.861,163.028 239.5,161.5C 240.804,158.87 242.47,156.537 244.5,154.5 Z M 256.5,203.5 C 254.421,191.343 253.921,179.01 255,166.5C 257.679,163.165 260.845,162.665 264.5,165C 271.374,171.608 274.708,179.775 274.5,189.5C 274.549,195.777 272.549,201.277 268.5,206C 268.833,206.333 269.167,206.667 269.5,207C 265.209,207.177 261.542,205.677 258.5,202.5C 257.817,202.863 257.15,203.196 256.5,203.5 Z"/></g>
<g><path style="opacity:0.865" fill="#8a1d40" d="M 307.5,154.5 C 318.903,154.787 326.069,160.454 329,171.5C 332.296,183.974 330.63,195.64 324,206.5C 313.013,217.266 302.346,216.932 292,205.5C 286.341,194.028 285.008,182.028 288,169.5C 290.055,164.112 293.555,159.946 298.5,157C 301.756,157.388 304.756,156.555 307.5,154.5 Z M 320.5,203.5 C 310.199,207.438 303.032,204.105 299,193.5C 295.508,183.737 295.675,174.07 299.5,164.5C 303.137,162.135 306.804,162.301 310.5,165C 320.794,175.678 323.46,188.012 318.5,202C 318.836,203.03 319.503,203.53 320.5,203.5 Z"/></g>
<g><path style="opacity:0.852" fill="#8a1d40" d="M 421.5,154.5 C 422.75,154.577 423.583,155.244 424,156.5C 424.308,155.692 424.808,155.025 425.5,154.5C 429.421,156.838 433.587,157.171 438,155.5C 448.08,155.697 455.08,160.364 459,169.5C 463.545,183.06 461.878,195.727 454,207.5C 444.24,213.897 433.74,215.23 422.5,211.5C 421.334,197.512 421.167,183.512 422,169.5C 423.074,168.382 424.24,167.382 425.5,166.5C 419.375,164.126 418.042,160.126 421.5,154.5 Z M 434.5,165.5 C 444.887,166.193 450.387,171.86 451,182.5C 452.747,191.079 450.913,198.746 445.5,205.5C 445.709,206.086 446.043,206.586 446.5,207C 441.963,208.662 437.463,208.495 433,206.5C 432.833,199.833 432.667,193.167 432.5,186.5C 432.537,179.264 433.204,172.264 434.5,165.5 Z"/></g>
<g><path style="opacity:0.844" fill="#8a1d40" d="M 350.5,155.5 C 357.872,155.853 363.872,158.853 368.5,164.5C 367.059,167.107 364.893,168.774 362,169.5C 358.346,168.514 355.18,166.681 352.5,164C 346.572,161.72 343.238,163.887 342.5,170.5C 342.449,175.425 344.616,178.758 349,180.5C 350.762,180.056 350.595,179.556 348.5,179C 350.609,177.859 352.442,176.359 354,174.5C 354.333,175.167 354.667,175.833 355,176.5C 362.522,172.592 367.855,174.592 371,182.5C 373.439,190.455 372.773,198.122 369,205.5C 360.828,213.867 351.328,215.701 340.5,211C 337.517,209.016 334.85,206.683 332.5,204C 333.963,201.369 335.963,199.202 338.5,197.5C 344.846,201.34 351.513,204.673 358.5,207.5C 361.461,206.817 361.795,205.984 359.5,205C 363.981,197.48 363.315,190.48 357.5,184C 356.5,183.333 355.5,183.333 354.5,184C 348.731,189.325 342.565,189.825 336,185.5C 330.561,173.452 333.228,163.786 344,156.5C 344.333,157.167 344.667,157.833 345,158.5C 346.876,157.391 348.709,156.391 350.5,155.5 Z"/></g>
<g><path style="opacity:0.795" fill="#8a1d40" d="M 385.5,218.5 C 387.787,218.724 389.953,219.391 392,220.5C 408.187,216.695 415.854,223.029 415,239.5C 410.842,249.829 403.342,253.663 392.5,251C 393.435,253.381 393.768,255.881 393.5,258.5C 390.545,259.159 387.545,259.492 384.5,259.5C 384.667,247.829 384.5,236.162 384,224.5C 381.93,221.875 382.43,219.875 385.5,218.5 Z M 396.5,223.5 C 405.371,226.228 408.871,232.228 407,241.5C 406.259,244.339 404.593,246.339 402,247.5C 399.148,246.033 396.481,245.033 394,244.5C 393.805,239.582 393.305,234.749 392.5,230C 392.895,227.14 394.228,224.973 396.5,223.5 Z"/></g>
<g><path style="opacity:0.81" fill="#8a1d40" d="M 431.5,218.5 C 436.421,218.528 440.754,220.028 444.5,223C 443.387,224.394 442.053,225.561 440.5,226.5C 436.303,224.705 431.969,223.872 427.5,224C 425.393,225.264 424.393,227.097 424.5,229.5C 429.511,229.334 434.511,229.501 439.5,230C 438.833,231 438.167,232 437.5,233C 432.652,233.059 427.985,233.726 423.5,235C 427.253,245.033 434.087,247.867 444,243.5C 443.941,249.217 440.941,251.884 435,251.5C 420.836,251.509 414.836,244.509 417,230.5C 418.893,222.82 423.726,218.82 431.5,218.5 Z"/></g>
<g><path style="opacity:0.824" fill="#8a1d40" d="M 448.5,218.5 C 451.181,218.462 453.681,219.129 456,220.5C 473.266,216.762 480.599,223.762 478,241.5C 473.773,250.363 466.939,253.363 457.5,250.5C 456.52,253.086 456.187,255.753 456.5,258.5C 453.873,259.092 451.206,259.425 448.5,259.5C 448.667,248.162 448.5,236.828 448,225.5C 446.978,224.646 446.145,223.646 445.5,222.5C 446.524,221.148 447.524,219.815 448.5,218.5 Z M 459.5,223.5 C 467.347,224.976 471.347,229.809 471.5,238C 471.129,241.455 469.795,244.455 467.5,247C 463.895,246.216 460.228,245.383 456.5,244.5C 456.334,238.491 456.501,232.491 457,226.5C 457.698,225.309 458.531,224.309 459.5,223.5 Z"/></g>
<g><path style="opacity:0.821" fill="#8a1d40" d="M 508.5,222.5 C 508.5,222.833 508.5,223.167 508.5,223.5C 504.82,226.903 500.82,227.069 496.5,224C 494.5,223.333 492.5,223.333 490.5,224C 489.5,225.667 488.5,227.333 487.5,229C 492.489,229.499 497.489,229.666 502.5,229.5C 502.67,230.822 502.337,231.989 501.5,233C 496.845,233.499 492.179,233.666 487.5,233.5C 489.951,244.642 496.451,247.976 507,243.5C 507.383,244.056 507.883,244.389 508.5,244.5C 508.5,245.167 508.5,245.833 508.5,246.5C 503.087,251.809 496.753,252.976 489.5,250C 482.927,247.193 479.927,242.193 480.5,235C 480.707,223.961 486.373,218.461 497.5,218.5C 501.512,219.079 505.179,220.413 508.5,222.5 Z"/></g>
<g><path style="opacity:0.764" fill="#8a1d40" d="M 272.5,228.5 C 275.787,229.161 279.12,229.661 282.5,230C 285.177,232.514 284.677,234.347 281,235.5C 278.684,235.066 276.684,234.066 275,232.5C 271.825,236.705 271.992,240.872 275.5,245C 278.444,245.97 281.444,246.804 284.5,247.5C 283.687,248.814 282.687,249.981 281.5,251C 268.358,252.185 263.525,246.352 267,233.5C 268.73,231.598 270.563,229.931 272.5,228.5 Z"/></g>
<g><path style="opacity:0.785" fill="#8a1d40" d="M 293.5,228.5 C 296.366,228.718 299.366,228.885 302.5,229C 304.081,229.707 305.581,230.54 307,231.5C 307.333,236.5 307.667,241.5 308,246.5C 309.794,248.464 309.294,249.964 306.5,251C 303.013,250.249 299.513,250.416 296,251.5C 285.459,248.734 282.792,242.401 288,232.5C 289.812,231.023 291.645,229.69 293.5,228.5 Z M 294.5,232.5 C 296.17,232.751 297.67,233.418 299,234.5C 299.667,238.167 299.667,241.833 299,245.5C 296.512,246.412 294.845,245.412 294,242.5C 293.341,239.112 293.508,235.779 294.5,232.5 Z"/></g>
<g><path style="opacity:0.751" fill="#8a1d40" d="M 315.5,228.5 C 319.014,228.764 322.681,228.931 326.5,229C 330.6,230.101 331.267,232.101 328.5,235C 334.08,240.486 333.747,245.486 327.5,250C 321.148,252.523 315.481,251.523 310.5,247C 311.076,245.286 312.243,244.119 314,243.5C 317.314,244.405 320.481,245.738 323.5,247.5C 326.206,245.012 326.039,242.679 323,240.5C 318.807,243.285 314.807,242.952 311,239.5C 310.298,234.907 311.798,231.241 315.5,228.5 Z M 318.5,232.5 C 321.237,233.031 323.904,233.864 326.5,235C 324.731,236.019 323.064,236.186 321.5,235.5C 317.893,237.9 316.893,236.9 318.5,232.5 Z"/></g>
<g><path style="opacity:0.785" fill="#8a1d40" d="M 341.5,228.5 C 344.366,228.718 347.366,228.885 350.5,229C 352.081,229.707 353.581,230.54 355,231.5C 355.333,236.5 355.667,241.5 356,246.5C 357.794,248.464 357.294,249.964 354.5,251C 351.013,250.249 347.513,250.416 344,251.5C 333.459,248.734 330.792,242.401 336,232.5C 337.812,231.023 339.645,229.69 341.5,228.5 Z M 342.5,232.5 C 344.17,232.751 345.67,233.418 347,234.5C 347.667,238.167 347.667,241.833 347,245.5C 344.512,246.412 342.845,245.412 342,242.5C 341.341,239.112 341.508,235.779 342.5,232.5 Z"/></g>
<g><path style="opacity:0.573" fill="#8a1d40" d="M -0.5,272.5 C -0.5,271.833 -0.5,271.167 -0.5,270.5C 5.1296,271.521 10.7963,271.687 16.5,271C 12.1667,270.667 7.83333,270.333 3.5,270C 4.77195,268.954 6.27195,268.454 8,268.5C 14.594,268.933 21.094,269.766 27.5,271C 18.2124,272.276 8.87911,272.776 -0.5,272.5 Z"/></g>
<g><path style="opacity:0.477" fill="#8a1d40" d="M 146.5,273.5 C 152.987,272.346 159.654,272.179 166.5,273C 159.842,273.5 153.175,273.666 146.5,273.5 Z"/></g>
<g><path style="opacity:0.448" fill="#8a1d40" d="M 174.5,272.5 C 178.555,272.176 182.555,272.509 186.5,273.5C 181.869,274.662 177.202,274.828 172.5,274C 173.416,273.722 174.082,273.222 174.5,272.5 Z"/></g>
<g><path style="opacity:0.704" fill="#8a1d40" d="M 134.5,275.5 C 140.319,274.347 146.319,274.181 152.5,275C 146.509,275.499 140.509,275.666 134.5,275.5 Z"/></g>
<g><path style="opacity:0.468" fill="#8a1d40" d="M 181.5,277.5 C 187.557,277.639 193.557,278.306 199.5,279.5C 198.667,279.833 197.833,280.167 197,280.5C 191.413,280.293 186.246,279.293 181.5,277.5 Z"/></g>
<g><path style="opacity:0.629" fill="#8a1d40" d="M 132.5,278.5 C 136.846,278.334 141.179,278.501 145.5,279C 145.833,279.333 146.167,279.667 146.5,280C 135.21,281.522 123.877,281.856 112.5,281C 119.178,279.871 125.844,279.038 132.5,278.5 Z"/></g>
</svg>
